<svg width="211" height="40" viewBox="0 0 211 40" fill="none" xmlns="http://www.w3.org/2000/svg">
<path d="M39.0734 32.4127L39.0764 32.4161L32.6063 38.0931C31.2797 39.2859 29.5644 39.9616 27.7763 39.9949L27.7613 39.9952H5.58891C4.76812 40.0297 3.95022 39.8761 3.1985 39.5461C2.43349 39.2104 1.75765 38.7013 1.22542 38.059C0.693159 37.4169 0.31946 36.66 0.133735 35.8489C-0.0485376 35.0516 -0.0445822 34.2225 0.146164 33.4268L1.85324 24.7348C2.0051 23.9782 2.40644 23.2933 2.99388 22.7892L3.07759 22.7174C2.89587 22.4431 2.76295 22.1392 2.68501 21.819C2.58162 21.3943 2.57801 20.9524 2.67324 20.5274L4.38371 11.8192L4.38635 11.8068C4.71923 10.2442 5.55769 8.83344 6.77343 7.79046L12.6972 2.5928C12.9713 2.27972 13.2722 1.98808 13.5977 1.72146C14.8944 0.659286 16.508 0.0544361 18.1865 0.000892044L18.2144 0L40.4137 0.063546C41.2336 0.029462 42.0505 0.183186 42.8014 0.512716C43.5665 0.848487 44.2423 1.35764 44.7745 1.99978C45.3067 2.64182 45.6805 3.39879 45.8662 4.21024C46.0487 5.00776 46.0444 5.83621 45.854 6.63149L41.6137 28.277L41.6076 28.3033C41.2352 29.9118 40.345 31.3545 39.0734 32.4127Z" fill="white"/>
<path d="M40.0667 2.06165C40.6499 2.03222 41.2319 2.13971 41.7662 2.37535C42.3005 2.61098 42.7723 2.96824 43.1439 3.41874C43.5154 3.86923 43.7764 4.40035 43.9061 4.96972C44.0357 5.53909 44.0304 6.13094 43.8905 6.69787L39.6684 28.3572C39.3718 29.6441 38.6578 30.7968 37.6376 31.6354C36.6174 32.474 35.3483 32.9515 34.0283 32.9934H11.938C11.3547 33.0225 10.7726 32.915 10.2381 32.6794C9.70362 32.4437 9.23154 32.0866 8.85943 31.6364C8.48732 31.1861 8.22545 30.6552 8.0947 30.086C7.96396 29.5167 7.96795 28.9247 8.10632 28.3572L9.8111 19.5947C9.91106 19.167 10.1496 18.7844 10.4896 18.5064C10.8296 18.2283 11.252 18.0704 11.6911 18.0573C15.722 18.2007 19.5936 18.5034 23.2023 19.8018L23.9989 24.8124C24.0184 24.9334 24.0822 25.0428 24.1779 25.1193C24.2736 25.1959 24.3943 25.2342 24.5167 25.2267C24.6572 25.2242 24.7947 25.1847 24.915 25.1119C25.0353 25.0392 25.1343 24.9358 25.2018 24.8124L27.9262 19.8018L33.3751 18.0812C33.5069 18.039 33.6255 17.9633 33.7191 17.8613C33.8127 17.7593 33.8781 17.6347 33.9088 17.4998C33.94 17.3804 33.9253 17.2537 33.8678 17.1446C33.8104 17.0355 33.7142 16.952 33.5981 16.9103L28.8184 15.1975L28.0218 10.1871C28.0024 10.0654 27.9388 9.95507 27.8434 9.87727C27.7479 9.79937 27.6271 9.75937 27.504 9.76487C27.3626 9.76807 27.2246 9.80887 27.1042 9.88307C26.9838 9.95727 26.8853 10.0622 26.8189 10.1871L24.0945 15.1975C20.1438 16.3307 16.056 16.9152 11.946 16.9342C11.7487 16.951 11.5503 16.9206 11.367 16.8457C11.1837 16.7709 11.0208 16.6537 10.8917 16.5036C10.7626 16.3535 10.671 16.1748 10.6244 15.9824C10.5778 15.79 10.5775 15.5892 10.6236 15.3966L12.3284 6.63409C12.6233 5.34782 13.3358 4.1954 14.3547 3.3567C15.3736 2.51799 16.6415 2.04034 17.9605 1.99805L40.0667 2.06165Z" fill="#FFB524"/>
<path d="M79.56 33.5H57.6V6.7H63.6V28.1H79.56V33.5ZM89.455 33.9C83.815 33.9 81.135 30.42 81.135 25.94V13.46H87.135V23.94C87.135 27.18 88.495 28.54 92.295 28.54C96.215 28.54 97.615 27.02 97.615 23.62V13.46H103.615V33.5H98.015V27.38H97.695C97.175 30.74 94.735 33.9 89.455 33.9ZM111.883 33.5H105.883V13.46H111.443V19.54H111.763C112.243 16.18 114.243 13.06 119.283 13.06C123.923 13.06 126.283 15.9 126.723 19.62H127.083C127.563 16.22 129.603 13.06 134.763 13.06C139.923 13.06 142.443 16.46 142.443 21.02V33.5H136.443V23.02C136.443 19.7 135.283 18.46 131.843 18.46C128.203 18.46 127.163 19.9 127.163 23.38V33.5H121.163V23.02C121.163 19.7 120.003 18.46 116.563 18.46C112.923 18.46 111.883 19.9 111.883 23.38V33.5ZM155.372 33.9C148.532 33.9 143.932 29.82 143.932 23.5C143.932 17.1 148.532 13.06 155.372 13.06C162.212 13.06 166.812 17.1 166.812 23.5C166.812 29.82 162.212 33.9 155.372 33.9ZM155.372 28.58C159.412 28.58 160.852 27.02 160.852 23.5C160.852 19.98 159.412 18.34 155.372 18.34C151.292 18.34 149.892 19.98 149.892 23.5C149.892 27.02 151.292 28.58 155.372 28.58ZM174.463 33.5H168.463V13.46H174.023V18.78H174.383C174.943 15.54 177.063 13.06 181.103 13.06C185.583 13.06 187.423 16.14 187.423 20.06V23.38H181.423V21.3C181.423 19.1 180.543 18.14 178.103 18.14C175.423 18.14 174.463 19.38 174.463 21.9V33.5ZM194.955 33.9C190.635 33.9 188.035 31.9 188.035 28.54C188.035 25.58 190.235 23.74 194.515 23.3L203.115 22.42V21.66C203.115 19.06 201.955 18.34 198.755 18.34C195.715 18.34 194.475 19.14 194.475 21.42V21.58H188.435V21.46C188.435 16.5 192.595 13.06 199.195 13.06C205.875 13.06 209.035 16.5 209.035 21.74V33.5H203.435V28.9H203.115C202.195 32.02 199.395 33.9 194.955 33.9ZM194.075 28.14C194.075 29.22 194.915 29.66 196.675 29.66C200.755 29.66 202.955 28.7 203.115 25.86L196.155 26.66C194.715 26.78 194.075 27.18 194.075 28.14Z" fill="white"/>
</svg>
