<svg width="127" height="24" viewBox="0 0 127 24" fill="none" xmlns="http://www.w3.org/2000/svg">
<path d="M23.4441 19.4476L23.4459 19.4497L19.5638 22.8559C18.7678 23.5716 17.7387 23.977 16.6658 23.997L16.6568 23.9971H3.35334C2.86087 24.0178 2.37013 23.9257 1.9191 23.7277C1.4601 23.5263 1.05459 23.2208 0.735253 22.8354C0.415896 22.4502 0.191676 21.996 0.080241 21.5094C-0.0291225 21.031 -0.0267493 20.5335 0.0876984 20.0561L1.11195 14.8409C1.20306 14.3869 1.44387 13.976 1.79633 13.6735L1.84656 13.6305C1.73752 13.4659 1.65777 13.2835 1.61101 13.0914C1.54897 12.8366 1.54681 12.5715 1.60395 12.3165L2.63023 7.09153L2.63181 7.08409C2.83154 6.14653 3.33462 5.30007 4.06406 4.67428L7.61833 1.55568C7.78279 1.36783 7.96333 1.19285 8.15863 1.03287C8.93665 0.395572 9.90481 0.0326616 10.9119 0.000535226L10.9287 0L24.2482 0.0381276C24.7402 0.0176772 25.2303 0.109912 25.6809 0.30763C26.1399 0.509092 26.5454 0.814582 26.8647 1.19987C27.184 1.58509 27.4083 2.03927 27.5197 2.52614C27.6292 3.00466 27.6267 3.50173 27.5124 3.97889L24.9682 16.9662L24.9646 16.982C24.7411 17.9471 24.207 18.8127 23.4441 19.4476Z" fill="#111111"/>
<path d="M24.0401 1.23738C24.3901 1.21972 24.7393 1.28421 25.0598 1.4256C25.3804 1.56698 25.6635 1.78133 25.8865 2.05163C26.1094 2.32193 26.266 2.6406 26.3438 2.98222C26.4215 3.32384 26.4184 3.67895 26.3344 4.01911L23.8012 17.0147C23.6232 17.7868 23.1948 18.4785 22.5827 18.9816C21.9706 19.4848 21.2091 19.7713 20.4171 19.7964H7.16291C6.81293 19.8139 6.46367 19.7494 6.14297 19.608C5.82227 19.4666 5.53902 19.2523 5.31576 18.9822C5.09249 18.712 4.93537 18.3935 4.85692 18.052C4.77848 17.7104 4.78087 17.3552 4.86389 17.0147L5.88676 11.7572C5.94674 11.5006 6.08987 11.271 6.29387 11.1042C6.49787 10.9374 6.75131 10.8426 7.01477 10.8348C9.43332 10.9208 11.7563 11.1024 13.9215 11.8815L14.3995 14.8878C14.4112 14.9604 14.4494 15.0261 14.5069 15.072C14.5643 15.1179 14.6367 15.1409 14.7101 15.1364C14.7944 15.1349 14.8769 15.1112 14.9491 15.0675C15.0213 15.0239 15.0807 14.9619 15.1212 14.8878L16.7558 11.8815L20.0252 10.8491C20.1043 10.8238 20.1754 10.7784 20.2316 10.7172C20.2877 10.656 20.327 10.5812 20.3454 10.5003C20.3641 10.4286 20.3553 10.3526 20.3208 10.2871C20.2864 10.2217 20.2286 10.1716 20.159 10.1466L17.2912 9.11888L16.8132 6.11263C16.8016 6.03961 16.7634 5.97343 16.7062 5.92675C16.6489 5.88001 16.5764 5.85601 16.5025 5.85931C16.4177 5.86123 16.3349 5.88571 16.2626 5.93023C16.1904 5.97475 16.1313 6.03769 16.0915 6.11263L14.4568 9.11888C12.0864 9.7988 9.63372 10.1495 7.16771 10.1609C7.04933 10.171 6.93029 10.1527 6.82031 10.1078C6.71033 10.0629 6.61259 9.9926 6.53513 9.90254C6.45767 9.81248 6.40271 9.70526 6.37475 9.58982C6.34679 9.47438 6.34661 9.3539 6.37427 9.23834L7.39715 3.98084C7.57409 3.20908 8.00159 2.51763 8.61293 2.01441C9.22428 1.51118 9.98502 1.22459 10.7764 1.19922L24.0401 1.23738Z" fill="#FFB524"/>
<path d="M47.7361 20H34.5601V3.92H38.1601V16.76H47.7361V20ZM53.6731 20.24C50.2891 20.24 48.6811 18.152 48.6811 15.464V7.976H52.2811V14.264C52.2811 16.208 53.0971 17.024 55.3771 17.024C57.7291 17.024 58.5691 16.112 58.5691 14.072V7.976H62.1691V20H58.8091V16.328H58.6171C58.3051 18.344 56.8411 20.24 53.6731 20.24ZM67.1298 20H63.5298V7.976H66.8658V11.624H67.0578C67.3458 9.608 68.5458 7.736 71.5698 7.736C74.3538 7.736 75.7698 9.44 76.0338 11.672H76.2498C76.5378 9.632 77.7618 7.736 80.8578 7.736C83.9538 7.736 85.4658 9.776 85.4658 12.512V20H81.8658V13.712C81.8658 11.72 81.1698 10.976 79.1058 10.976C76.9218 10.976 76.2978 11.84 76.2978 13.928V20H72.6978V13.712C72.6978 11.72 72.0018 10.976 69.9378 10.976C67.7538 10.976 67.1298 11.84 67.1298 13.928V20ZM93.2234 20.24C89.1194 20.24 86.3594 17.792 86.3594 14C86.3594 10.16 89.1194 7.736 93.2234 7.736C97.3274 7.736 100.087 10.16 100.087 14C100.087 17.792 97.3274 20.24 93.2234 20.24ZM93.2234 17.048C95.6474 17.048 96.5114 16.112 96.5114 14C96.5114 11.888 95.6474 10.904 93.2234 10.904C90.7754 10.904 89.9354 11.888 89.9354 14C89.9354 16.112 90.7754 17.048 93.2234 17.048ZM104.678 20H101.078V7.976H104.414V11.168H104.63C104.966 9.224 106.238 7.736 108.662 7.736C111.35 7.736 112.454 9.584 112.454 11.936V13.928H108.854V12.68C108.854 11.36 108.326 10.784 106.862 10.784C105.254 10.784 104.678 11.528 104.678 13.04V20ZM116.973 20.24C114.381 20.24 112.821 19.04 112.821 17.024C112.821 15.248 114.141 14.144 116.709 13.88L121.869 13.352V12.896C121.869 11.336 121.173 10.904 119.253 10.904C117.429 10.904 116.685 11.384 116.685 12.752V12.848H113.061V12.776C113.061 9.8 115.557 7.736 119.517 7.736C123.525 7.736 125.421 9.8 125.421 12.944V20H122.061V17.24H121.869C121.317 19.112 119.637 20.24 116.973 20.24ZM116.445 16.784C116.445 17.432 116.949 17.696 118.005 17.696C120.453 17.696 121.773 17.12 121.869 15.416L117.693 15.896C116.829 15.968 116.445 16.208 116.445 16.784Z" fill="#111111"/>
</svg>
