<svg width="621" height="615" viewBox="0 0 621 615" fill="none" xmlns="http://www.w3.org/2000/svg">
<g filter="url(#filter0_f_4_7)">
<rect x="5" y="5" width="611" height="605" rx="115" fill="url(#paint0_linear_4_7)"/>
</g>
<rect x="9.65479" y="7.65479" width="599.69" height="599.69" rx="115" fill="url(#paint1_linear_4_7)"/>
<g filter="url(#filter1_d_4_7)">
<mask id="path-3-outside-1_4_7" maskUnits="userSpaceOnUse" x="180" y="70" width="269" height="460" fill="black">
<rect fill="white" x="180" y="70" width="269" height="460"/>
<path d="M230.898 525.555C218.398 525.555 207.461 521.258 198.086 512.664C188.711 503.68 184.023 492.742 184.023 479.852V108.953C184.023 99.1875 185.977 90.9844 189.883 84.3438C194.18 77.7031 201.797 74.3828 212.734 74.3828C223.672 74.3828 231.094 77.7031 235 84.3438C239.297 90.9844 241.445 99.1875 241.445 108.953V455.828C241.445 467.156 247.109 472.82 258.438 472.82H411.953C420.938 472.82 428.555 474.773 434.805 478.68C441.055 482.195 444.18 489.031 444.18 499.188C444.18 508.953 441.055 515.789 434.805 519.695C428.555 523.602 420.938 525.555 411.953 525.555H230.898Z"/>
</mask>
<path d="M230.898 525.555C218.398 525.555 207.461 521.258 198.086 512.664C188.711 503.68 184.023 492.742 184.023 479.852V108.953C184.023 99.1875 185.977 90.9844 189.883 84.3438C194.18 77.7031 201.797 74.3828 212.734 74.3828C223.672 74.3828 231.094 77.7031 235 84.3438C239.297 90.9844 241.445 99.1875 241.445 108.953V455.828C241.445 467.156 247.109 472.82 258.438 472.82H411.953C420.938 472.82 428.555 474.773 434.805 478.68C441.055 482.195 444.18 489.031 444.18 499.188C444.18 508.953 441.055 515.789 434.805 519.695C428.555 523.602 420.938 525.555 411.953 525.555H230.898Z" fill="url(#paint2_linear_4_7)"/>
<path d="M198.086 512.664L195.318 515.552C195.34 515.572 195.361 515.593 195.383 515.613L198.086 512.664ZM189.883 84.3438L186.525 82.1707C186.494 82.2184 186.464 82.2667 186.435 82.3157L189.883 84.3438ZM235 84.3438L231.552 86.3718C231.581 86.4208 231.611 86.4691 231.642 86.5168L235 84.3438ZM434.805 478.68L432.685 482.072C432.737 482.104 432.79 482.136 432.844 482.166L434.805 478.68ZM230.898 525.555V521.555C219.418 521.555 209.44 517.646 200.789 509.715L198.086 512.664L195.383 515.613C205.482 524.87 217.379 529.555 230.898 529.555V525.555ZM198.086 512.664L200.854 509.776C192.259 501.54 188.023 491.643 188.023 479.852H184.023H180.023C180.023 493.842 185.163 505.819 195.318 515.552L198.086 512.664ZM184.023 479.852H188.023V108.953H184.023H180.023V479.852H184.023ZM184.023 108.953H188.023C188.023 99.7127 189.871 92.2538 193.331 86.3718L189.883 84.3438L186.435 82.3157C182.083 89.715 180.023 98.6623 180.023 108.953H184.023ZM189.883 84.3438L193.241 86.5168C196.537 81.4235 202.583 78.3828 212.734 78.3828V74.3828V70.3828C201.011 70.3828 191.823 73.9827 186.525 82.1707L189.883 84.3438ZM212.734 74.3828V78.3828C222.913 78.3828 228.646 81.4305 231.552 86.3718L235 84.3438L238.448 82.3157C233.542 73.9758 224.43 70.3828 212.734 70.3828V74.3828ZM235 84.3438L231.642 86.5168C235.431 92.3729 237.445 99.7771 237.445 108.953H241.445H245.445C245.445 98.5979 243.163 89.5958 238.358 82.1707L235 84.3438ZM241.445 108.953H237.445V455.828H241.445H245.445V108.953H241.445ZM241.445 455.828H237.445C237.445 462.109 239.018 467.554 242.865 471.401C246.712 475.247 252.157 476.82 258.438 476.82V472.82V468.82C253.39 468.82 250.339 467.561 248.522 465.744C246.704 463.927 245.445 460.876 245.445 455.828H241.445ZM258.438 472.82V476.82H411.953V472.82V468.82H258.438V472.82ZM411.953 472.82V476.82C420.353 476.82 427.197 478.642 432.685 482.072L434.805 478.68L436.925 475.288C429.912 470.905 421.522 468.82 411.953 468.82V472.82ZM434.805 478.68L432.844 482.166C437.341 484.696 440.18 489.804 440.18 499.188H444.18H448.18C448.18 488.259 444.769 479.695 436.766 475.193L434.805 478.68ZM444.18 499.188H440.18C440.18 508.078 437.394 513.36 432.685 516.303L434.805 519.695L436.925 523.087C444.716 518.218 448.18 509.828 448.18 499.188H444.18ZM434.805 519.695L432.685 516.303C427.197 519.733 420.353 521.555 411.953 521.555V525.555V529.555C421.522 529.555 429.912 527.47 436.925 523.087L434.805 519.695ZM411.953 525.555V521.555H230.898V525.555V529.555H411.953V525.555Z" fill="#9F9D9D" mask="url(#path-3-outside-1_4_7)"/>
</g>
<defs>
<filter id="filter0_f_4_7" x="0" y="0" width="621" height="615" filterUnits="userSpaceOnUse" color-interpolation-filters="sRGB">
<feFlood flood-opacity="0" result="BackgroundImageFix"/>
<feBlend mode="normal" in="SourceGraphic" in2="BackgroundImageFix" result="shape"/>
<feGaussianBlur stdDeviation="2.5" result="effect1_foregroundBlur_4_7"/>
</filter>
<filter id="filter1_d_4_7" x="147.223" y="41.5828" width="333.756" height="524.772" filterUnits="userSpaceOnUse" color-interpolation-filters="sRGB">
<feFlood flood-opacity="0" result="BackgroundImageFix"/>
<feColorMatrix in="SourceAlpha" type="matrix" values="0 0 0 0 0 0 0 0 0 0 0 0 0 0 0 0 0 0 127 0" result="hardAlpha"/>
<feOffset dy="4"/>
<feGaussianBlur stdDeviation="16.4"/>
<feComposite in2="hardAlpha" operator="out"/>
<feColorMatrix type="matrix" values="0 0 0 0 0 0 0 0 0 0 0 0 0 0 0 0 0 0 1 0"/>
<feBlend mode="normal" in2="BackgroundImageFix" result="effect1_dropShadow_4_7"/>
<feBlend mode="normal" in="SourceGraphic" in2="effect1_dropShadow_4_7" result="shape"/>
</filter>
<linearGradient id="paint0_linear_4_7" x1="-22.6649" y1="-9.08796" x2="695.425" y2="674.209" gradientUnits="userSpaceOnUse">
<stop stop-color="white"/>
<stop offset="0.326959" stop-color="#343232"/>
<stop offset="0.646718" stop-color="#676767"/>
<stop offset="1" stop-color="white"/>
</linearGradient>
<linearGradient id="paint1_linear_4_7" x1="309.5" y1="7.65479" x2="309.5" y2="607.345" gradientUnits="userSpaceOnUse">
<stop stop-color="#3E3E3E"/>
<stop offset="0.625039" stop-color="#0D0D0D"/>
</linearGradient>
<linearGradient id="paint2_linear_4_7" x1="309.657" y1="169.123" x2="309.657" y2="445.097" gradientUnits="userSpaceOnUse">
<stop offset="0.153191" stop-color="white"/>
<stop offset="0.876596" stop-color="#747474"/>
</linearGradient>
</defs>
</svg>
