<svg width="40" height="49" viewBox="0 0 40 49" fill="none" xmlns="http://www.w3.org/2000/svg">
<path d="M28.5625 11.7188C29.0208 11.7188 29.8021 11.7917 30.9062 11.9375C32.0104 12.0833 33.2188 12.5 34.5312 13.1875C35.8646 13.8542 37.0729 14.9688 38.1562 16.5312C38.0938 16.5938 37.7917 16.8229 37.25 17.2188C36.7083 17.5938 36.1042 18.1562 35.4375 18.9062C34.7708 19.6354 34.1875 20.5729 33.6875 21.7188C33.1875 22.8438 32.9375 24.1875 32.9375 25.75C32.9375 27.5417 33.25 29.0625 33.875 30.3125C34.5208 31.5625 35.2604 32.5729 36.0938 33.3438C36.9479 34.0938 37.6979 34.6458 38.3438 35C39.0104 35.3542 39.3646 35.5417 39.4062 35.5625C39.3854 35.6458 39.1146 36.3854 38.5938 37.7812C38.0938 39.1771 37.2604 40.7292 36.0938 42.4375C35.0729 43.9167 33.9688 45.2812 32.7812 46.5312C31.6146 47.7812 30.2083 48.4062 28.5625 48.4062C27.4583 48.4062 26.5521 48.25 25.8438 47.9375C25.1354 47.6042 24.4062 47.2812 23.6562 46.9688C22.9062 46.6354 21.8958 46.4688 20.625 46.4688C19.3958 46.4688 18.3646 46.6354 17.5312 46.9688C16.7188 47.3021 15.9375 47.6354 15.1875 47.9688C14.4583 48.3021 13.5938 48.4688 12.5938 48.4688C11.0729 48.4688 9.73958 47.8646 8.59375 46.6562C7.44792 45.4479 6.27083 44 5.0625 42.3125C3.66667 40.3125 2.46875 37.875 1.46875 35C0.489583 32.1042 0 29.1875 0 26.25C0 23.1042 0.59375 20.4688 1.78125 18.3438C2.96875 16.1979 4.48958 14.5833 6.34375 13.5C8.21875 12.3958 10.1562 11.8438 12.1562 11.8438C13.2188 11.8438 14.2188 12.0208 15.1562 12.375C16.0938 12.7083 16.9688 13.0521 17.7812 13.4062C18.6146 13.7604 19.3646 13.9375 20.0312 13.9375C20.6771 13.9375 21.4271 13.75 22.2812 13.375C23.1354 13 24.0938 12.6354 25.1562 12.2812C26.2188 11.9062 27.3542 11.7188 28.5625 11.7188ZM26.8438 7.75C26.0312 8.72917 25.0104 9.55208 23.7812 10.2188C22.5521 10.8646 21.3854 11.1875 20.2812 11.1875C20.0521 11.1875 19.8333 11.1667 19.625 11.125C19.6042 11.0625 19.5833 10.9479 19.5625 10.7812C19.5417 10.6146 19.5312 10.4375 19.5312 10.25C19.5312 9 19.8021 7.79167 20.3438 6.625C20.8854 5.4375 21.5 4.45833 22.1875 3.6875C23.0625 2.64583 24.1667 1.78125 25.5 1.09375C26.8333 0.40625 28.1042 0.0416667 29.3125 0C29.375 0.270833 29.4062 0.59375 29.4062 0.96875C29.4062 2.21875 29.1667 3.4375 28.6875 4.625C28.2083 5.79167 27.5938 6.83333 26.8438 7.75Z" fill="black"/>
</svg>
