<svg width="48" height="48" viewBox="0 0 48 48" fill="none" xmlns="http://www.w3.org/2000/svg">
<path d="M38.6324 39.2125C39.6027 39.174 40.5229 38.7712 41.2096 38.0845C41.8963 37.3979 42.299 36.4776 42.3376 35.5073C42.4438 33.1865 42.5605 29.6844 42.6063 24.9167H43.148C44.523 24.9167 45.6376 23.9937 45.7001 22.6208C45.7354 21.8085 45.7521 20.9954 45.7501 20.1823C45.7501 18.9927 45.722 17.9896 45.6824 17.174C45.6084 15.6323 44.3209 14.5 42.7761 14.5H42.5438C42.4836 12.107 42.3669 9.71566 42.1938 7.32812C41.9938 4.66458 39.9605 2.63125 37.2969 2.43229C34.3917 2.2125 29.9876 2 23.8751 2C17.7626 2 13.3584 2.21354 10.4532 2.43125C7.78966 2.63125 5.75633 4.66458 5.55737 7.32812C5.42195 9.12708 5.28862 11.501 5.20633 14.5H4.97299C3.42924 14.5 2.14174 15.6323 2.06779 17.174C2.02108 18.176 1.9985 19.1791 2.00008 20.1823C2.00008 21.1812 2.02091 21.9823 2.05008 22.6208C2.11258 23.9937 3.22716 24.9167 4.60216 24.9167H5.14383C5.18966 29.6833 5.30633 33.1865 5.41258 35.5073C5.45111 36.4776 5.85385 37.3979 6.54053 38.0845C7.22722 38.7712 8.14743 39.174 9.11779 39.2125C12.0688 39.3479 16.9313 39.5 23.8751 39.5C30.8188 39.5 35.6813 39.3479 38.6324 39.2125Z" stroke="black" stroke-width="4" stroke-linecap="round" stroke-linejoin="round"/>
<path d="M9.30553 39.221C9.29652 39.6612 9.292 40.1015 9.29199 40.5418C9.29199 41.9231 9.33574 43.0439 9.38366 43.8647C9.40754 44.318 9.59592 44.747 9.91349 45.0713C10.2311 45.3955 10.656 45.5929 11.1087 45.6262C11.9024 45.6908 12.918 45.7512 13.9795 45.7512C15.042 45.7512 16.0566 45.6908 16.8503 45.6262C17.3028 45.5926 17.7275 45.3952 18.0448 45.0709C18.3622 44.7467 18.5504 44.3178 18.5743 43.8647C18.6232 43.0439 18.667 41.9231 18.667 40.5418C18.667 40.1647 18.6639 39.8075 18.6576 39.47M29.093 39.47C29.0642 40.9354 29.0917 42.4014 29.1753 43.8647C29.1992 44.318 29.3876 44.747 29.7052 45.0713C30.0227 45.3955 30.4477 45.5929 30.9003 45.6262C31.6941 45.6908 32.7097 45.7512 33.7712 45.7512C34.8337 45.7512 35.8482 45.6908 36.642 45.6262C37.0945 45.5926 37.5192 45.3952 37.8365 45.0709C38.1539 44.7467 38.3421 44.3178 38.3659 43.8647C38.4149 43.0439 38.4587 41.9231 38.4587 40.5418C38.4587 40.071 38.4541 39.6307 38.4451 39.221M13.4587 33.2502H16.5837M34.292 33.2502H31.167M37.3795 27.0002C37.4038 25.4703 37.4163 23.7342 37.417 21.7918C37.417 15.3481 37.1337 11.3439 36.943 9.37725C36.9051 8.9517 36.7205 8.55253 36.4209 8.24797C36.1213 7.94341 35.7252 7.75235 35.3003 7.70745C33.4389 7.50225 29.7482 7.2085 23.8753 7.2085C18.0014 7.2085 14.3118 7.50225 12.4503 7.7085C12.0256 7.75335 11.6296 7.94426 11.33 8.24861C11.0304 8.55296 10.8458 8.95188 10.8076 9.37725C10.617 11.345 10.3337 15.3481 10.3337 21.7918C10.335 23.7342 10.3475 25.4703 10.3712 27.0002H37.3795Z" stroke="black" stroke-width="4" stroke-linecap="round" stroke-linejoin="round"/>
</svg>
