<svg width="45" height="38" viewBox="0 0 45 38" fill="none" xmlns="http://www.w3.org/2000/svg">
<path d="M2.06245 17.0896C1.98549 16.7824 1.97958 16.4617 2.04516 16.1519C2.11074 15.8421 2.24609 15.5513 2.44092 15.3016C2.63574 15.052 2.88492 14.85 3.1695 14.7111C3.45409 14.5722 3.7666 14.5 4.08328 14.5H40.4166C40.7331 14.5001 41.0453 14.5723 41.3297 14.7111C41.6141 14.8498 41.8632 15.0516 42.058 15.301C42.2527 15.5504 42.3882 15.8409 42.4539 16.1504C42.5197 16.46 42.514 16.7805 42.4375 17.0875L38.6645 32.1771C38.4392 33.0785 37.9191 33.8787 37.1868 34.4506C36.4545 35.0225 35.552 35.3332 34.6229 35.3333H9.87703C8.94788 35.3332 8.04544 35.0225 7.31313 34.4506C6.58083 33.8787 6.06068 33.0785 5.83536 32.1771L2.06245 17.0896Z" stroke="black" stroke-width="4" stroke-linejoin="round"/>
<path d="M16 22.8333V27M28.5 22.8333V27M9.75 14.5L18.0833 2M34.75 14.5L26.4167 2" stroke="black" stroke-width="4" stroke-linecap="round"/>
</svg>
