<svg width="46" height="42" viewBox="0 0 46 42" fill="none" xmlns="http://www.w3.org/2000/svg">
<path d="M43.6667 35.3333V14.5C43.6667 13.3949 43.2277 12.3351 42.4463 11.5537C41.6649 10.7723 40.6051 10.3333 39.5 10.3333H25.4083C24.6344 10.3333 23.8757 10.1177 23.2174 9.71075C22.5591 9.30377 22.0272 8.72149 21.6813 8.02917L19.8188 4.30417C19.4726 3.61153 18.9404 3.02904 18.2817 2.62204C17.623 2.21504 16.8639 1.99964 16.0896 2H6.16667C5.0616 2 4.00179 2.43899 3.22039 3.22039C2.43899 4.00179 2 5.0616 2 6.16667V35.3333C2 36.4384 2.43899 37.4982 3.22039 38.2796C4.00179 39.061 5.0616 39.5 6.16667 39.5H39.5C40.6051 39.5 41.6649 39.061 42.4463 38.2796C43.2277 37.4982 43.6667 36.4384 43.6667 35.3333Z" stroke="black" stroke-width="4" stroke-linecap="round" stroke-linejoin="round"/>
</svg>
