<svg width="46" height="33" viewBox="0 0 46 33" fill="none" xmlns="http://www.w3.org/2000/svg">
<path d="M16.5833 22.8338L10.4 29.0172C9.71181 29.7052 8.83507 30.1737 7.88063 30.3635C6.92618 30.5533 5.93689 30.4559 5.03782 30.0835C4.13875 29.7111 3.37028 29.0805 2.82956 28.2714C2.28884 27.4624 2.00015 26.5111 2 25.538V22.8338L4.82708 8.70049C5.20467 6.81137 6.22513 5.11143 7.71483 3.88989C9.20452 2.66836 11.0714 2.00069 12.9979 2.00049H32.6688C34.5952 2.00069 36.4621 2.66836 37.9518 3.88989C39.4415 5.11143 40.462 6.81137 40.8396 8.70049L43.6667 22.8338V25.5359C43.6665 26.509 43.3778 27.4603 42.8371 28.2694C42.2964 29.0785 41.5279 29.709 40.6289 30.0814C39.7298 30.4538 38.7405 30.5513 37.786 30.3615C36.8316 30.1716 35.9549 29.7031 35.2667 29.0151L29.0833 22.8338H16.5833Z" stroke="black" stroke-width="4" stroke-linecap="round" stroke-linejoin="round"/>
<path d="M16.583 2.00049L18.6663 6.16715H26.9997L29.083 2.00049" stroke="black" stroke-width="4" stroke-linecap="round" stroke-linejoin="round"/>
</svg>
