<svg width="45" height="46" viewBox="0 0 45 46" fill="none" xmlns="http://www.w3.org/2000/svg">
<path d="M44.6968 23.523C44.6968 21.8921 44.5517 20.3239 44.2822 18.8184H22.8047V27.7152H35.0775C34.5489 30.5902 32.9423 33.0261 30.5271 34.6571V40.428H37.897C42.209 36.4239 44.6968 30.5274 44.6968 23.523Z" fill="#4285F4"/>
<path d="M22.8046 46.0001C28.9617 46.0001 34.1237 43.9405 37.8966 40.4279L30.5268 34.657C28.4849 36.037 25.8726 36.8523 22.8046 36.8523C16.865 36.8523 11.8378 32.8064 10.0444 27.3701H2.42578V33.3292C6.17822 40.846 13.8902 46.0001 22.8046 46.0001Z" fill="#34A853"/>
<path d="M10.0441 27.37C9.58804 25.99 9.32898 24.5159 9.32898 23C9.32898 21.484 9.58804 20.01 10.0441 18.63V12.6709H2.42546C0.881155 15.7759 0 19.2887 0 23C0 26.7112 0.881155 30.224 2.42546 33.329L10.0441 27.37Z" fill="#FBBC04"/>
<path d="M22.8046 9.14779C26.1524 9.14779 29.1585 10.3081 31.5219 12.5872L38.0626 5.99035C34.1134 2.27907 28.9512 0 22.8046 0C13.8902 0 6.17822 5.15407 2.42578 12.6709L10.0444 18.63C11.8378 13.1937 16.865 9.14779 22.8046 9.14779Z" fill="#E94235"/>
</svg>
