<svg width="46" height="46" viewBox="0 0 46 46" fill="none" xmlns="http://www.w3.org/2000/svg">
<path d="M31.1667 4.08333C31.1667 3.5308 30.9472 3.00089 30.5565 2.61019C30.1658 2.21949 29.6359 2 29.0833 2H16.5833C16.0308 2 15.5009 2.21949 15.1102 2.61019C14.7195 3.00089 14.5 3.5308 14.5 4.08333V14.5H4.08333C3.5308 14.5 3.00089 14.7195 2.61019 15.1102C2.21949 15.5009 2 16.0308 2 16.5833V29.0833C2 29.6359 2.21949 30.1658 2.61019 30.5565C3.00089 30.9472 3.5308 31.1667 4.08333 31.1667H14.5V41.5833C14.5 42.1359 14.7195 42.6658 15.1102 43.0565C15.5009 43.4472 16.0308 43.6667 16.5833 43.6667H29.0833C29.6359 43.6667 30.1658 43.4472 30.5565 43.0565C30.9472 42.6658 31.1667 42.1359 31.1667 41.5833V31.1667H41.5833C42.1359 31.1667 42.6658 30.9472 43.0565 30.5565C43.4472 30.1658 43.6667 29.6359 43.6667 29.0833V16.5833C43.6667 16.0308 43.4472 15.5009 43.0565 15.1102C42.6658 14.7195 42.1359 14.5 41.5833 14.5H31.1667V4.08333Z" stroke="black" stroke-width="4" stroke-linecap="round" stroke-linejoin="round"/>
</svg>
