<svg width="42" height="44" viewBox="0 0 42 44" fill="none" xmlns="http://www.w3.org/2000/svg">
<path d="M35.3333 16.5835H6.16667C3.86548 16.5835 2 18.449 2 20.7502V37.4168C2 39.718 3.86548 41.5835 6.16667 41.5835H35.3333C37.6345 41.5835 39.5 39.718 39.5 37.4168V20.7502C39.5 18.449 37.6345 16.5835 35.3333 16.5835Z" stroke="black" stroke-width="4" stroke-linecap="round" stroke-linejoin="round"/>
<path d="M8.25 8.25C8.25 6.5924 8.90848 5.00269 10.0806 3.83058C11.2527 2.65848 12.8424 2 14.5 2H27C28.6576 2 30.2473 2.65848 31.4194 3.83058C32.5915 5.00269 33.25 6.5924 33.25 8.25V16.5833H8.25V8.25Z" stroke="black" stroke-width="4" stroke-linecap="round" stroke-linejoin="round"/>
</svg>
