<svg width="46" height="38" viewBox="0 0 46 38" fill="none" xmlns="http://www.w3.org/2000/svg">
<path d="M2 6.16667C2 5.0616 2.43899 4.00179 3.22039 3.22039C4.00179 2.43899 5.0616 2 6.16667 2H39.5C40.6051 2 41.6649 2.43899 42.4463 3.22039C43.2277 4.00179 43.6667 5.0616 43.6667 6.16667V31.1667C43.6667 32.2717 43.2277 33.3315 42.4463 34.1129C41.6649 34.8943 40.6051 35.3333 39.5 35.3333H6.16667C5.0616 35.3333 4.00179 34.8943 3.22039 34.1129C2.43899 33.3315 2 32.2717 2 31.1667V6.16667Z" stroke="black" stroke-width="4" stroke-linecap="round" stroke-linejoin="round"/>
<path d="M2 10.3335L17.6271 22.8356C19.1048 24.0179 20.9409 24.662 22.8333 24.662C24.7258 24.662 26.5619 24.0179 28.0396 22.8356L43.6667 10.3335" stroke="black" stroke-width="4" stroke-linejoin="round"/>
</svg>
