<svg width="41" height="46" viewBox="0 0 41 46" fill="none" xmlns="http://www.w3.org/2000/svg">
<path d="M20.196 22.8333C25.9489 22.8333 30.6126 18.1696 30.6126 12.4167C30.6126 6.6637 25.9489 2 20.196 2C14.443 2 9.7793 6.6637 9.7793 12.4167C9.7793 18.1696 14.443 22.8333 20.196 22.8333Z" stroke="black" stroke-width="4"/>
<path d="M30.6134 27H31.3467C32.8698 27.0004 34.3403 27.557 35.482 28.5652C36.6236 29.5733 37.3579 30.9637 37.5467 32.475L38.3613 38.9833C38.4346 39.5696 38.3823 40.1648 38.208 40.7294C38.0336 41.294 37.7412 41.815 37.3501 42.2579C36.959 42.7008 36.4782 43.0555 35.9396 43.2984C35.4009 43.5413 34.8168 43.6668 34.2259 43.6667H6.16757C5.5767 43.6668 4.99256 43.5413 4.45392 43.2984C3.91528 43.0555 3.43445 42.7008 3.04336 42.2579C2.65226 41.815 2.35984 41.294 2.1855 40.7294C2.01116 40.1648 1.95889 39.5696 2.03216 38.9833L2.84466 32.475C3.03361 30.963 3.76844 29.572 4.91097 28.5638C6.05351 27.5555 7.52503 26.9994 9.04882 27H9.78007" stroke="black" stroke-width="4" stroke-linecap="round" stroke-linejoin="round"/>
</svg>
