<svg width="45" height="45" viewBox="0 0 45 45" fill="none" xmlns="http://www.w3.org/2000/svg">
<path d="M6.16667 19.2113L2 27.5446L9.1 30.3842C10.1482 30.8033 11.1004 31.4311 11.8986 32.2293C12.6969 33.0276 13.3246 33.9797 13.7438 35.0279L16.5833 42.1279L24.9167 37.9613L22.3958 32.9196C21.9407 32.011 21.8333 30.9675 22.0938 29.9852C22.3543 29.003 22.9648 28.1498 23.8104 27.5863L27 25.4613L35.3333 40.0446L41.5833 31.7113L36.8125 16.1509L38.3021 14.6634C41.2438 11.7217 43.9479 6.99252 40.5417 3.58627C37.1354 0.180023 32.3958 2.87794 29.4667 5.83002L27.9667 7.30502L12.4167 2.54461L4.08333 8.79461L18.6667 17.1279L16.5417 20.3175C15.9784 21.1635 15.1254 21.7744 14.1431 22.0353C13.1609 22.2962 12.1171 22.1891 11.2083 21.7342L6.16667 19.2113Z" stroke="black" stroke-width="4" stroke-linecap="round" stroke-linejoin="round"/>
</svg>
