<svg width="41" height="46" viewBox="0 0 41 46" fill="none" xmlns="http://www.w3.org/2000/svg">
<path d="M3.68627 18.3333C3.77007 17.2892 4.24409 16.3149 5.01393 15.6045C5.78376 14.8941 6.79292 14.4998 7.84044 14.5H32.9613C34.0088 14.4998 35.0179 14.8941 35.7878 15.6045C36.5576 16.3149 37.0316 17.2892 37.1154 18.3333L38.7884 39.1667C38.8344 39.74 38.7612 40.3166 38.5734 40.8603C38.3856 41.4039 38.0874 41.9028 37.6973 42.3255C37.3073 42.7482 36.834 43.0856 36.3071 43.3164C35.7803 43.5472 35.2114 43.6665 34.6363 43.6667H6.16544C5.59028 43.6665 5.02138 43.5472 4.49456 43.3164C3.96774 43.0856 3.49442 42.7482 3.10439 42.3255C2.71436 41.9028 2.41607 41.4039 2.22829 40.8603C2.04052 40.3166 1.96734 39.74 2.01336 39.1667L3.68627 18.3333Z" stroke="black" stroke-width="4" stroke-linecap="round" stroke-linejoin="round"/>
<path d="M28.735 20.75V10.3333C28.735 8.1232 27.8571 6.00358 26.2942 4.44078C24.7314 2.87797 22.6118 2 20.4017 2C18.1916 2 16.0719 2.87797 14.5091 4.44078C12.9463 6.00358 12.0684 8.1232 12.0684 10.3333V20.75" stroke="black" stroke-width="4" stroke-linecap="round" stroke-linejoin="round"/>
</svg>
