<svg width="50" height="50" viewBox="0 0 50 50" fill="none" xmlns="http://www.w3.org/2000/svg">
<path d="M27.0834 25.0001H45.8334M45.8334 25.0001L38.8897 16.6668M45.8334 25.0001L38.8897 33.3334M29.1667 14.5834V10.7793C29.1667 10.2029 29.0471 9.63292 28.8156 9.10518C28.584 8.57745 28.2455 8.1035 27.8214 7.71328C27.3973 7.32306 26.8968 7.02506 26.3517 6.83811C25.8066 6.65116 25.2286 6.57934 24.6542 6.62717L7.98758 8.01467C6.94602 8.10142 5.9751 8.57644 5.26737 9.34552C4.55964 10.1146 4.1668 11.1216 4.16675 12.1668V37.8334C4.1668 38.8786 4.55964 39.8856 5.26737 40.6546C5.9751 41.4237 6.94602 41.8988 7.98758 41.9855L24.6542 43.3751C25.2287 43.4229 25.8069 43.351 26.3522 43.164C26.8975 42.9769 27.398 42.6787 27.8221 42.2883C28.2463 41.8978 28.5847 41.4236 28.8162 40.8956C29.0476 40.3677 29.167 39.7974 29.1667 39.2209V35.4168" stroke="black" stroke-width="4" stroke-linecap="round" stroke-linejoin="round"/>
</svg>
