<?xml version="1.0" standalone="no"?>
<!DOCTYPE svg PUBLIC "-//W3C//DTD SVG 20010904//EN"
 "http://www.w3.org/TR/2001/REC-SVG-20010904/DTD/svg10.dtd">
<svg version="1.0" xmlns="http://www.w3.org/2000/svg"
 width="578.000000pt" height="622.000000pt" viewBox="0 0 578.000000 622.000000"
 preserveAspectRatio="xMidYMid meet">

<g transform="translate(0.000000,622.000000) scale(0.100000,-0.100000)"
fill="#000000" stroke="none">
<path d="M1750 6213 c-222 -18 -492 -115 -688 -247 -309 -209 -540 -538 -622
-891 -28 -119 -35 -198 -34 -360 4 -418 166 -786 472 -1067 l84 -78 217 0 216
0 -82 48 c-125 71 -199 128 -298 227 -108 109 -180 210 -245 348 -65 138 -87
208 -112 351 -62 365 61 760 327 1045 123 132 340 269 523 330 212 71 464 78
687 19 182 -48 393 -165 542 -302 254 -234 409 -615 389 -956 -12 -193 -42
-310 -126 -488 -117 -245 -303 -441 -552 -582 -32 -17 -58 -34 -58 -36 0 -2
95 -4 211 -4 l210 0 123 123 c225 224 353 466 411 777 28 146 26 423 -3 557
-87 398 -316 729 -662 956 -266 174 -602 257 -930 230z"/>
<path d="M1840 5677 c-37 -18 -50 -54 -50 -134 l0 -72 -42 -11 c-214 -55 -325
-147 -364 -300 -47 -184 38 -361 212 -441 33 -15 136 -46 228 -69 93 -23 187
-50 210 -60 104 -44 154 -129 134 -225 -14 -63 -75 -126 -147 -150 -118 -39
-274 -11 -348 62 -36 36 -83 124 -83 155 0 27 -14 29 -119 22 -99 -7 -100 -7
-106 -34 -8 -36 20 -154 47 -199 65 -109 190 -188 341 -216 l37 -7 0 -78 c0
-70 3 -82 26 -109 22 -27 32 -31 75 -31 40 0 55 5 74 25 23 22 25 32 25 108
l0 83 71 17 c320 77 470 368 314 612 -70 110 -160 163 -360 215 -256 67 -294
83 -337 140 -69 94 -14 223 112 265 78 26 202 18 262 -18 60 -35 103 -86 125
-146 l17 -50 96 6 c110 6 120 14 114 78 -17 177 -148 295 -386 349 -27 6 -28
8 -28 79 0 39 -3 82 -6 95 -12 44 -91 66 -144 39z"/>
<path d="M4919 5461 l-29 -29 0 -930 0 -930 153 -5 c172 -6 225 -18 351 -84
l76 -40 0 994 0 995 -29 29 -29 29 -232 0 -232 0 -29 -29z"/>
<path d="M4113 4856 c-17 -8 -36 -23 -42 -35 -8 -13 -11 -214 -11 -635 l0
-616 295 0 295 0 0 615 0 615 -29 32 -29 33 -224 3 c-176 2 -230 -1 -255 -12z"/>
<path d="M3437 4213 c-2 -4 -10 -26 -17 -48 -44 -139 -192 -379 -315 -512
l-77 -83 391 0 391 0 0 299 c0 279 -1 300 -19 322 -19 23 -25 24 -184 27 -91
2 -167 0 -170 -5z"/>
<path d="M310 3896 c-110 -29 -212 -111 -262 -210 -49 -96 -48 -40 -48 -1678
0 -1084 3 -1553 11 -1590 18 -84 65 -173 130 -243 74 -79 138 -120 232 -151
l72 -23 2326 -1 c1515 0 2345 3 2380 10 140 26 295 144 358 271 57 117 61 144
61 477 l0 302 -614 0 c-646 0 -686 2 -797 47 -300 118 -493 451 -435 751 56
290 261 501 559 572 77 19 119 20 685 20 l604 0 -4 278 c-4 250 -6 282 -25
333 -42 112 -108 195 -207 260 -123 81 119 73 -2491 79 l-2330 6 -74 21 c-109
30 -139 79 -87 139 l23 28 115 -12 c64 -7 136 -12 162 -12 l48 0 -72 78 c-39
42 -99 119 -133 169 -61 92 -63 93 -102 92 -22 0 -60 -6 -85 -13z"/>
<path d="M4316 2268 c-115 -22 -254 -109 -326 -204 -95 -125 -128 -265 -99
-419 35 -190 206 -366 393 -405 34 -7 281 -9 723 -8 661 3 672 3 699 24 15 11
37 33 48 48 20 26 21 42 24 424 2 262 0 409 -8 434 -13 44 -66 93 -117 107
-48 14 -1267 13 -1337 -1z m319 -342 c117 -69 137 -234 40 -332 -45 -44 -93
-64 -156 -64 -223 0 -294 303 -94 406 64 33 142 29 210 -10z"/>
</g>
</svg>
